:FULLY-SPECIFIED
:FORCE-ALL-JOINTS-BE-3DOF
:DEGREES
2242
root -0.723421 13.8232 -16.235 905.676 -25.9794 171.241
lfemur 5.38538 1.79108 -13.9639
ltibia 45.0306 0 0
lfoot -26.4303 35.4516 0
ltoes -37.8819 0 0
rfemur -64.4201 -19.473 7.84553
rtibia 67.9733 0 0
rfoot -1.42619 12.2676 0
rtoes 0.0982479 0 0
lowerback 11.9659 1.86449 -13.038
upperback -1.86687 0.297954 -1.11421
thorax -8.92163 0.719645 6.09224
lowerneck 1.23272 -11.4154 -12.7765
upperneck 5.41322 -16.0268 10.2807
head 3.314 -8.08595 4.4711
lclavicle -1.58422e-16 1.37106e-14 0
lhumerus -65.7463 -16.8449 103.576
lradius 99.9012 0 0
lwrist 56.5357 0 0
lhand -11.1758 426.388 0
lfingers 7.12502 0 0
lthumb 14.8496 -409.096 0
rclavicle -1.58422e-16 1.37106e-14 0
rhumerus 45.4596 -7.59211 -62.176
rradius 20.076 0 0
rwrist 32.1837 0 0
rhand -18.93 -402.59 0
rfingers 7.12502 0 0
rthumb 7.37249 287.563 0
2243
root -0.726182 13.8184 -16.2637 905.859 -25.8719 171.169
lfemur 5.38438 1.75033 -14.0912
ltibia 44.6653 0 0
lfoot -26.257 35.438 0
ltoes -38.0213 0 0
rfemur -64.6275 -19.551 7.93434
rtibia 68.3827 0 0
rfoot -1.63845 12.248 0
rtoes 0.191941 0 0
lowerback 11.8844 1.85674 -13.0564
upperback -1.89539 0.292118 -1.13843
thorax -8.90583 0.716395 6.07718
lowerneck 1.18688 -11.3931 -12.7212
upperneck 5.38516 -15.9871 10.2543
head 3.30679 -8.06432 4.45636
lclavicle -1.55661e-15 1.39812e-14 0
lhumerus -65.3326 -16.8543 103.535
lradius 99.5987 0 0
lwrist 56.3458 0 0
lhand -11.2983 426.044 0
lfingers 7.12502 0 0
lthumb 14.7315 -404.39 0
rclavicle -1.55661e-15 1.39812e-14 0
rhumerus 45.1597 -7.54374 -62.1976
rradius 20.4065 0 0
rwrist 31.7281 0 0
rhand -18.919 -402.548 0
rfingers 7.12502 0 0
rthumb 7.38306 287.606 0
2244
root -0.728943 13.8136 -16.2925 906.062 -25.7725 171.087
lfemur 5.41294 1.70086 -14.2169
ltibia 44.2608 0 0
lfoot -26.08 35.4304 0
ltoes -38.1881 0 0
rfemur -64.863 -19.6444 8.02239
rtibia 68.7992 0 0
rfoot -1.86448 12.2396 0
rtoes 0.298777 0 0
lowerback 11.7945 1.84981 -13.0793
upperback -1.9276 0.287256 -1.16618
thorax -8.88957 0.713768 6.06052
lowerneck 1.14253 -11.3761 -12.6669
upperneck 5.35363 -15.9544 10.2308
head 3.29885 -8.04606 4.44228
lclavicle -3.06427e-15 1.42932e-14 0
lhumerus -64.9639 -16.8701 103.499
lradius 99.3253 0 0
lwrist 56.1923 0 0
lhand -11.4164 425.688 0
lfingers 7.12502 0 0
lthumb 14.6176 -399.391 0
rclavicle -3.06427e-15 1.42932e-14 0
rhumerus 44.8979 -7.50892 -62.2016
rradius 20.7009 0 0
rwrist 31.3105 0 0
rhand -18.9121 -402.508 0
rfingers 7.12502 0 0
rthumb 7.38975 287.646 0
2245
root -0.731704 13.8087 -16.3213 906.285 -25.6822 170.995
lfemur 5.47361 1.64207 -14.3405
ltibia 43.815 0 0
lfoot -25.8995 35.4295 0
ltoes -38.384 0 0
rfemur -65.1283 -19.7543 8.1093
rtibia 69.2222 0 0
rfoot -2.10473 12.2434 0
rtoes 0.419569 0 0
lowerback 11.6958 1.84379 -13.1068
upperback -1.96373 0.283473 -1.1977
thorax -8.87286 0.711828 6.04218
lowerneck 1.09995 -11.3648 -12.6137
upperneck 5.31843 -15.9293 10.2105
head 3.29015 -8.03153 4.42895
lclavicle -4.68604e-15 1.46494e-14 0
lhumerus -64.6456 -16.8928 103.47
lradius 99.0845 0 0
lwrist 56.0792 0 0
lhand -11.5293 425.321 0
lfingers 7.12502 0 0
lthumb 14.5087 -394.088 0
rclavicle -4.68604e-15 1.46494e-14 0
rhumerus 44.6785 -7.48899 -62.1863
rradius 20.955 0 0
rwrist 30.9356 0 0
rhand -18.9096 -402.47 0
rfingers 7.12502 0 0
rthumb 7.39219 287.685 0
2246
root -0.734465 13.8039 -16.35 906.529 -25.6022 170.893
lfemur 5.56895 1.57334 -14.4615
ltibia 43.3257 0 0
lfoot -25.716 35.4359 0
ltoes -38.6109 0 0
rfemur -65.425 -19.8817 8.1947
rtibia 69.6508 0 0
rfoot -2.35968 12.2604 0
rtoes 0.55513 0 0
lowerback 11.5878 1.83878 -13.1395
upperback -2.00401 0.280874 -1.23321
thorax -8.85571 0.710641 6.02206
lowerneck 1.05944 -11.3598 -12.5619
upperneck 5.27935 -15.9127 10.1939
head 3.28065 -8.0211 4.4165
lclavicle -6.42655e-15 1.50522e-14 0
lhumerus -64.3829 -16.9228 103.446
lradius 98.8799 0 0
lwrist 56.0101 0 0
lhand -11.6361 424.943 0
lfingers 7.12502 0 0
lthumb 14.4057 -388.472 0
rclavicle -6.42655e-15 1.50522e-14 0
rhumerus 44.506 -7.48529 -62.1502
rradius 21.1645 0 0
rwrist 30.6083 0 0
rhand -18.9118 -402.434 0
rfingers 7.12502 0 0
rthumb 7.39001 287.721 0
2247
root -0.737226 13.7991 -16.3788 906.795 -25.5336 170.78
lfemur 5.70153 1.49405 -14.5793
ltibia 42.7909 0 0
lfoot -25.5296 35.4501 0
ltoes -38.8708 0 0
rfemur -65.755 -20.0277 8.27822
rtibia 70.0842 0 0
rfoot -2.62976 12.2915 0
rtoes 0.706273 0 0
lowerback 11.4701 1.83487 -13.1775
upperback -2.04864 0.279563 -1.27293
thorax -8.83815 0.710271 6.00008
lowerneck 1.02128 -11.3617 -12.5118
upperneck 5.2362 -15.9051 10.1813
head 3.2703 -8.01513 4.40503
lclavicle -8.29044e-15 1.55045e-14 0
lhumerus -64.1813 -16.9607 103.43
lradius 98.7151 0 0
lwrist 55.9889 0 0
lhand -11.7361 424.554 0
lfingers 7.12502 0 0
lthumb 14.3093 -382.535 0
rclavicle -8.29044e-15 1.55045e-14 0
rhumerus 44.3846 -7.49918 -62.0916
rradius 21.3251 0 0
rwrist 30.3334 0 0
rhand -18.9192 -402.402 0
rfingers 7.12502 0 0
rthumb 7.38283 287.753 0
2248
root -0.739988 13.7943 -16.4076 907.085 -25.4773 170.655
lfemur 5.87391 1.4036 -14.6933
ltibia 42.2084 0 0
lfoot -25.3406 35.4727 0
ltoes -39.1654 0 0
rfemur -66.12 -20.1934 8.35949
rtibia 70.5216 0 0
rfoot -2.91545 12.338 0
rtoes 0.873811 0 0
lowerback 11.3423 1.83217 -13.2212
upperback -2.09785 0.279644 -1.31707
thorax -8.82018 0.710784 5.97615
lowerneck 0.985764 -11.3709 -12.4636
upperneck 5.18877 -15.9074 10.173
head 3.25908 -8.014 4.39464
lclavicle -1.02823e-14 1.60088e-14 0
lhumerus -64.0459 -17.007 103.421
lradius 98.5936 0 0
lwrist 56.0195 0 0
lhand -11.8285 424.154 0
lfingers 7.12502 0 0
lthumb 14.2204 -376.267 0
rclavicle -1.02823e-14 1.60088e-14 0
rhumerus 44.3187 -7.53197 -62.0089
rradius 21.4326 0 0
rwrist 30.1159 0 0
rhand -18.9322 -402.372 0
rfingers 7.12502 0 0
rthumb 7.37029 287.782 0
2249
root -0.742749 13.7895 -16.4363 907.399 -25.4344 170.518
lfemur 6.08865 1.30137 -14.8029
ltibia 41.576 0 0
lfoot -25.1493 35.5043 0
ltoes -39.4967 0 0
rfemur -66.5215 -20.3797 8.43812
rtibia 70.9623 0 0
rfoot -3.21719 12.4007 0
rtoes 1.05856 0 0
lowerback 11.2039 1.83077 -13.2709
upperback -2.15187 0.281222 -1.36587
thorax -8.80183 0.712245 5.95019
lowerneck 0.953171 -11.388 -12.4177
upperneck 5.13686 -15.9204 10.1693
head 3.24694 -8.01807 4.38544
lclavicle -1.24069e-14 1.65678e-14 0
lhumerus -63.9822 -17.0623 103.42
lradius 98.519 0 0
lwrist 56.1057 0 0
lhand -11.9123 423.744 0
lfingers 7.12502 0 0
lthumb 14.1396 -369.658 0
rclavicle -1.24069e-14 1.65678e-14 0
rhumerus 44.3126 -7.58502 -61.9006
rradius 21.4826 0 0
rwrist 29.9605 0 0
rhand -18.9512 -402.346 0
rfingers 7.12502 0 0
rthumb 7.352 287.808 0
2250
root -0.74551 13.7847 -16.4651 907.738 -25.4061 170.368
lfemur 6.34831 1.18675 -14.9075
ltibia 40.8918 0 0
lfoot -24.956 35.5454 0
ltoes -39.8666 0 0
rfemur -66.9614 -20.5879 8.51376
rtibia 71.4054 0 0
rfoot -3.53545 12.4807 0
rtoes 1.26133 0 0
lowerback 11.0544 1.83077 -13.327
upperback -2.21091 0.284403 -1.41955
thorax -8.7831 0.714719 5.92211
lowerneck 0.923794 -11.4134 -12.3743
upperneck 5.08027 -15.9446 10.1707
head 3.23385 -8.0277 4.37755
lclavicle -1.46687e-14 1.71841e-14 0
lhumerus -63.9954 -17.1269 103.428
lradius 98.4948 0 0
lwrist 56.2512 0 0
lhand -11.9869 423.324 0
lfingers 7.12502 0 0
lthumb 14.0677 -362.701 0
rclavicle -1.46687e-14 1.71841e-14 0
rhumerus 44.3707 -7.65967 -61.765
rradius 21.471 0 0
rwrist 29.8722 0 0
rhand -18.9764 -402.324 0
rfingers 7.12502 0 0
rthumb 7.3276 287.829 0
